<?xml version="1.0" encoding="UTF-8"?>
<svg width="24" height="24" viewBox="0 0 24 24" fill="none" xmlns="http://www.w3.org/2000/svg">
  <path d="M12 2C6.477 2 2 6.477 2 12C2 16.419 4.865 20.167 8.84 21.539C9.34 21.609 9.52 21.309 9.52 21.039C9.52 20.799 9.512 20.028 9.512 19.198C7 19.708 6.35 18.598 6.15 18.008C6.037 17.728 5.55 16.818 5.125 16.578C4.775 16.378 4.275 15.868 5.117 15.858C5.917 15.848 6.487 16.568 6.687 16.858C7.687 18.388 9.137 18.038 9.55 17.768C9.62 17.128 9.89 16.698 10.19 16.468C7.954 16.238 5.62 15.398 5.62 11.658C5.62 10.598 6.01 9.718 6.71 9.038C6.63 8.778 6.29 7.798 6.81 6.598C6.81 6.598 7.75 6.328 9.52 7.438C10.32 7.208 11.17 7.098 12.02 7.098C12.87 7.098 13.72 7.208 14.52 7.438C16.29 6.318 17.23 6.598 17.23 6.598C17.75 7.798 17.41 8.778 17.33 9.038C18.03 9.718 18.42 10.588 18.42 11.658C18.42 15.408 16.08 16.238 13.844 16.468C14.224 16.758 14.554 17.318 14.554 18.198C14.554 19.458 14.546 20.708 14.546 21.038C14.546 21.308 14.726 21.618 15.226 21.538C19.135 20.167 22 16.418 22 12C22 6.477 17.523 2 12 2Z" fill="currentColor"/>
</svg>
